#!OML:ASF X:\für Bonn\!DataBase\2005_08_10_Bjorn_Final\c3d\bjorn.ASF
:FULLY-SPECIFIED
:DEGREES
185
root 15.5351 18.2066 1.71076 173.725 -103.493 -138.519
lowerback 72.4349 -4.17476 12.1383
upperback 16.6276 0.360835 -0.189862
thorax -1.5452 0.0821041 -5.09452
lowerneck 5.05973 -6.76213 11.5865
upperneck -19.5921 -8.42731 -0.832052
head -7.41965 -5.05111 -1.43581
rclavicle -8.90555e-014 3.81667e-014
rhumerus 68.1805 -13.9108 -38.9494
rradius 18.9031
rwrist -0.631874
rhand -42.7539 33.3031
rfingers 7.12502
rthumb -15.6214 3.91386
lclavicle -8.90555e-014 3.81667e-014
lhumerus -15.2189 -32.7928 82.7088
lradius 57.2067
lwrist 0.839526
lhand -34.8919 -14.0549
lfingers 7.12502
lthumb -8.04041 15.7722
rfemur -65.1055 -8.58144 2.57617
rtibia 53.2586
rfoot -17.3002 -0.428123
rtoes -11.5795
lfemur -65.8003 -0.532177 -29.1277
ltibia 52.4414
lfoot -12.4548 5.38704
ltoes -21.5144
186
root 15.5397 18.1999 1.71555 173.783 -103.531 -138.56
lowerback 72.3306 -4.14176 12.1359
upperback 16.6636 0.375973 -0.209228
thorax -1.51284 0.0957498 -5.12595
lowerneck 4.95495 -6.7419 11.6544
upperneck -19.5951 -8.4093 -0.846631
head -7.40525 -5.04804 -1.45655
rclavicle -6.36111e-015 -1.11319e-014
rhumerus 68.1745 -13.6342 -37.9979
rradius 18.8078
rwrist 0.0403715
rhand -42.1172 32.7853
rfingers 7.12502
rthumb -15.008 3.3492
lclavicle -6.36111e-015 -1.11319e-014
lhumerus -15.3055 -32.8417 82.7745
lradius 57.1541
lwrist 0.926152
lhand -34.8578 -13.8922
lfingers 7.12502
lthumb -8.00756 15.9362
rfemur -65.1663 -8.60172 2.53469
rtibia 53.3451
rfoot -17.33 -0.484299
rtoes -11.7795
lfemur -65.9115 -0.446573 -29.2548
ltibia 52.5722
lfoot -12.4346 5.23505
ltoes -21.5858
187
root 15.5442 18.1937 1.71843 173.919 -103.579 -138.665
lowerback 72.2314 -4.0985 12.1384
upperback 16.6772 0.413378 -0.212424
thorax -1.50371 0.115657 -5.14883
lowerneck 4.87745 -6.73151 11.7459
upperneck -19.5858 -8.40425 -0.893633
head -7.3949 -5.04898 -1.48937
rclavicle 1.90833e-014 -3.33958e-014
rhumerus 68.154 -13.3506 -37.0611
rradius 18.7214
rwrist 0.873968
rhand -41.5514 32.2572
rfingers 7.12502
rthumb -14.4629 2.78123
lclavicle 1.90833e-014 -3.33958e-014
lhumerus -15.4054 -32.841 82.8777
lradius 57.0628
lwrist 0.964399
lhand -34.805 -13.8364
lfingers 7.12502
lthumb -7.95662 15.9938
rfemur -65.2306 -8.60222 2.48897
rtibia 53.4323
rfoot -17.3779 -0.519607
rtoes -11.6414
lfemur -66.0456 -0.378554 -29.3487
ltibia 52.7054
lfoot -12.4149 5.07432
ltoes -21.5193
188
root 15.548 18.1867 1.72187 173.991 -103.619 -138.727
lowerback 72.1608 -4.06901 12.1495
upperback 16.6941 0.441127 -0.234297
thorax -1.48782 0.134822 -5.19179
lowerneck 4.78385 -6.72087 11.8133
upperneck -19.5708 -8.3923 -0.88433
head -7.3761 -5.04944 -1.50157
rclavicle 1.24042e-013 -1.11319e-014
rhumerus 68.1257 -13.0744 -36.101
rradius 18.6617
rwrist 1.69451
rhand -40.946 31.7468
rfingers 7.12502
rthumb -13.8796 2.22994
lclavicle 1.24042e-013 -1.11319e-014
lhumerus -15.4829 -32.8374 82.9653
lradius 56.9823
lwrist 0.989006
lhand -34.751 -13.7307
lfingers 7.12502
lthumb -7.90446 16.1015
rfemur -65.279 -8.58992 2.43652
rtibia 53.5262
rfoot -17.4418 -0.604481
rtoes -11.8898
lfemur -66.1522 -0.303053 -29.4546
ltibia 52.847
lfoot -12.4108 4.94803
ltoes -21.5023
189
root 15.5521 18.1794 1.72369 174.156 -103.658 -138.873
lowerback 72.067 -4.02822 12.1688
upperback 16.7271 0.480352 -0.249477
thorax -1.45377 0.159845 -5.2356
lowerneck 4.70445 -6.70547 11.878
upperneck -19.5622 -8.36844 -0.85966
head -7.36041 -5.04501 -1.50885
rclavicle 7.95139e-014 7.95139e-015
rhumerus 68.1084 -12.8353 -35.2396
rradius 18.6647
rwrist 2.57912
rhand -40.3166 31.1992
rfingers 7.12502
rthumb -13.2729 1.64184
lclavicle 7.95139e-014 7.95139e-015
lhumerus -15.5114 -32.8352 83.0251
lradius 56.9004
lwrist 1.03128
lhand -34.6976 -13.5907
lfingers 7.12502
lthumb -7.85293 16.2434
rfemur -65.3453 -8.58576 2.41759
rtibia 53.6226
rfoot -17.4871 -0.668117
rtoes -12.0446
lfemur -66.2778 -0.215484 -29.5438
ltibia 52.9916
lfoot -12.3979 4.78476
ltoes -21.5676
190
root 15.5568 18.1731 1.726 174.271 -103.707 -138.979
lowerback 72.007 -4.01196 12.2003
upperback 16.7463 0.507731 -0.279114
thorax -1.43203 0.181789 -5.29471
lowerneck 4.58411 -6.697 11.9491
upperneck -19.5119 -8.35965 -0.83707
head -7.32523 -5.04691 -1.51858
rclavicle 1.90833e-014 1.59028e-015
rhumerus 68.0728 -12.5831 -34.3273
rradius 18.6935
rwrist 3.4037
rhand -39.6306 30.7609
rfingers 7.12502
rthumb -12.6117 1.16156
lclavicle 1.90833e-014 1.59028e-015
lhumerus -15.5263 -32.8388 83.0697
lradius 56.8219
lwrist 1.01921
lhand -34.6228 -13.4428
lfingers 7.12502
lthumb -7.78067 16.3941
rfemur -65.4012 -8.58507 2.38161
rtibia 53.7226
rfoot -17.536 -0.738902
rtoes -12.0648
lfemur -66.3874 -0.156019 -29.6286
ltibia 53.138
lfoot -12.3898 4.65072
ltoes -21.6657
191
root 15.5599 18.1671 1.72735 174.325 -103.741 -139.015
lowerback 71.9538 -3.95767 12.1966
upperback 16.7534 0.556142 -0.293194
thorax -1.42579 0.207677 -5.33052
lowerneck 4.51848 -6.69513 12.0028
upperneck -19.4745 -8.34973 -0.79518
head -7.30227 -5.04796 -1.51724
rclavicle -2.54444e-014 -3.18055e-014
rhumerus 68.0274 -12.2996 -33.3936
rradius 18.7412
rwrist 4.13955
rhand -38.9422 30.3138
rfingers 7.12502
rthumb -11.9479 0.674742
lclavicle -2.54444e-014 -3.18055e-014
lhumerus -15.5618 -32.8406 83.1429
lradius 56.7475
lwrist 0.99335
lhand -34.5726 -13.3148
lfingers 7.12502
lthumb -7.73226 16.5238
rfemur -65.4653 -8.57137 2.3354
rtibia 53.8268
rfoot -17.5881 -0.820144
rtoes -12.2508
lfemur -66.5035 -0.0817595 -29.726
ltibia 53.2882
lfoot -12.3903 4.51152
ltoes -21.7227
192
root 15.5635 18.1595 1.72854 174.479 -103.781 -139.161
lowerback 71.9156 -3.9454 12.2435
upperback 16.755 0.592912 -0.341535
thorax -1.42025 0.236111 -5.41981
lowerneck 4.4118 -6.70394 12.0958
upperneck -19.3974 -8.35608 -0.755316
head -7.26239 -5.05809 -1.52319
rclavicle -5.08889e-014 -2.54444e-014
rhumerus 67.9469 -12.0296 -32.5553
rradius 18.8455
rwrist 4.84342
rhand -38.3087 30.0402
rfingers 7.12502
rthumb -11.337 0.366606
lclavicle -5.08889e-014 -2.54444e-014
lhumerus -15.598 -32.877 83.1663
lradius 56.7139
lwrist 0.953276
lhand -34.5401 -13.0811
lfingers 7.12502
lthumb -7.70093 16.7586
rfemur -65.5242 -8.56518 2.31956
rtibia 53.9339
rfoot -17.6391 -0.877548
rtoes -12.4781
lfemur -66.6213 -0.038478 -29.7695
ltibia 53.4394
lfoot -12.4075 4.40867
ltoes -21.623
193
root 15.5668 18.1529 1.7288 174.538 -103.819 -139.196
lowerback 71.8952 -3.91114 12.2503
upperback 16.7331 0.636086 -0.374505
thorax -1.44403 0.261078 -5.4779
lowerneck 4.38264 -6.71022 12.1206
upperneck -19.3559 -8.34889 -0.683258
head -7.24209 -5.05966 -1.50614
rclavicle 4.77083e-014 -2.8625e-014
rhumerus 67.9065 -11.7461 -31.7911
rradius 18.9338
rwrist 5.63651
rhand -37.7217 29.8262
rfingers 7.12502
rthumb -10.7708 0.122386
lclavicle 4.77083e-014 -2.8625e-014
lhumerus -15.6503 -32.8969 83.214
lradius 56.6749
lwrist 0.906259
lhand -34.4989 -12.9368
lfingers 7.12502
lthumb -7.66117 16.9044
rfemur -65.6035 -8.55293 2.28075
rtibia 54.041
rfoot -17.6876 -0.980572
rtoes -12.6738
lfemur -66.7478 0.0188234 -29.8527
ltibia 53.5938
lfoot -12.4054 4.29085
ltoes -21.6812
194
root 15.5701 18.1457 1.72933 174.585 -103.853 -139.232
lowerback 71.8825 -3.8912 12.2947
upperback 16.7174 0.685435 -0.425486
thorax -1.45543 0.294461 -5.57324
lowerneck 4.29517 -6.73669 12.185
upperneck -19.2688 -8.37043 -0.596284
head -7.20024 -5.07771 -1.4905
rclavicle 6.67916e-014 -9.54166e-015
rhumerus 67.8261 -11.5013 -31.0241
rradius 19.0433
rwrist 6.4239
rhand -37.179 29.6894
rfingers 7.12502
rthumb -10.2473 -0.0409895
lclavicle 6.67916e-014 -9.54166e-015
lhumerus -15.6786 -32.9926 83.2352
lradius 56.649
lwrist 0.918884
lhand -34.4579 -12.8518
lfingers 7.12502
lthumb -7.62152 16.9909
rfemur -65.6639 -8.53453 2.23583
rtibia 54.153
rfoot -17.7583 -1.06013
rtoes -12.9088
lfemur -66.8547 0.0600809 -29.9184
ltibia 53.7459
lfoot -12.4084 4.19714
ltoes -21.7093
195
root 15.5734 18.1387 1.72855 174.645 -103.893 -139.268
lowerback 71.8753 -3.86691 12.323
upperback 16.6861 0.734615 -0.468583
thorax -1.4859 0.324401 -5.65301
lowerneck 4.24274 -6.76332 12.2136
upperneck -19.181 -8.39272 -0.516916
head -7.16264 -5.09228 -1.47063
rclavicle 0 2.38542e-014
rhumerus 67.7724 -11.2586 -30.4039
rradius 19.1866
rwrist 7.34151
rhand -36.6606 29.6613
rfingers 7.12502
rthumb -9.74717 -0.0931092
lclavicle 0 2.38542e-014
lhumerus -15.7389 -33.0661 83.2947
lradius 56.6232
lwrist 0.917779
lhand -34.4785 -12.7315
lfingers 7.12502
lthumb -7.64146 17.1105
rfemur -65.739 -8.49889 2.17572
rtibia 54.2632
rfoot -17.832 -1.14
rtoes -12.8922
lfemur -66.98 0.0851719 -29.9727
ltibia 53.8994
lfoot -12.407 4.1328
ltoes -21.7552
196
root 15.5758 18.1316 1.72795 174.683 -103.9 -139.295
lowerback 71.8967 -3.82763 12.355
upperback 16.6518 0.802246 -0.51417
thorax -1.51546 0.362403 -5.74343
lowerneck 4.15691 -6.80712 12.2178
upperneck -19.0588 -8.44355 -0.420903
head -7.10791 -5.11922 -1.44095
rclavicle 1.04958e-013 -4.92986e-014
rhumerus 67.7322 -11.0399 -29.8061
rradius 19.3407
rwrist 8.36765
rhand -36.2816 29.5104
rfingers 7.12502
rthumb -9.38154 -0.260867
lclavicle 1.04958e-013 -4.92986e-014
lhumerus -15.7721 -33.1811 83.3294
lradius 56.6095
lwrist 0.903838
lhand -34.4945 -12.664
lfingers 7.12502
lthumb -7.6569 17.1774
rfemur -65.8196 -8.46095 2.14773
rtibia 54.3832
rfoot -17.8845 -1.24451
rtoes -13.2394
lfemur -67.0931 0.132878 -30.0184
ltibia 54.0518
lfoot -12.4145 4.0692
ltoes -21.749
